# xmcd
#
# Track frame offsets: 
#        150
#        14100
#        28001
#        40952
#        57715
#        72783
#        88341
#        104743
#        122699
#        135556
#        150797
#        168816
#
# Disc length: 2461 seconds
#
# Revision: 0
# Processed by: cddbd v1.5.2PL0 Copyright (c) Steve Scherf et al.
# Submitted via: ExactAudioCopy v0.99pb5
#
DISCID=a3099b0c
DTITLE=Gordie Tentrees - Mercy Or Sin
DYEAR=2009
DGENRE=Country
TTITLE0=Alfred
TTITLE1=No Integrity Man
TTITLE2=Hey Mama
TTITLE3=Devil Talks
TTITLE4=Carpenter Girl
TTITLE5=Traveling Song Man
TTITLE6=Mercy Or Sin
TTITLE7=Rambling's Gonna Be The Death Of Me
TTITLE8=Same Old Blues
TTITLE9=Daylight
TTITLE10=Blue Motel Room
TTITLE11=Ross River
EXTD=
EXTT0=
EXTT1=
EXTT2=
EXTT3=
EXTT4=
EXTT5=
EXTT6=
EXTT7=
EXTT8=
EXTT9=
EXTT10=
EXTT11=
PLAYORDER=
